<svg version="1.1" id="Layer_1" xmlns="http://www.w3.org/2000/svg" xmlns:xlink="http://www.w3.org/1999/xlink" x="0px" y="0px"
	 width="100%" viewBox="0 0 1080 1080" enable-background="new 0 0 1080 1080" xml:space="preserve">
<path fill="#FFFFFF" opacity="1.000000" stroke="none" 
	d="
M1.000001,387.000000 
	C1.000000,258.353577 1.000000,129.707138 1.000000,1.030358 
	C360.923126,1.030358 720.846252,1.030358 1080.884766,1.030358 
	C1080.884766,360.999969 1080.884766,721.000000 1080.884766,1081.000000 
	C1048.239014,1081.000000 1015.577454,1081.000000 982.760132,1080.737061 
	C987.841553,1079.650513 993.161621,1079.174561 998.303040,1077.949097 
	C1042.483765,1067.418457 1074.132324,1028.443115 1074.950684,982.599182 
	C1075.477539,953.078552 1064.623657,928.105286 1043.824829,907.307495 
	C963.580322,827.066956 883.346863,746.815369 803.104797,666.572388 
	C801.947266,665.414917 800.733521,664.313721 799.126831,662.788208 
	C761.818970,720.333374 714.426208,767.506775 657.019104,804.996399 
	C658.666016,806.812195 659.616516,807.953857 660.662537,808.999878 
	C741.374573,889.715454 822.080505,970.437256 902.826843,1051.118530 
	C915.942566,1064.223511 931.501038,1073.232544 949.532959,1077.705078 
	C955.274475,1079.129150 961.173218,1079.919556 967.000000,1081.000000 
	C645.083008,1081.000000 323.166046,1081.000000 1.000000,1081.000000 
	C1.000000,865.305359 1.000000,649.610657 1.308732,433.732971 
	C3.427172,460.945648 7.678185,487.924500 14.856080,514.459167 
	C32.790600,580.757935 65.668503,638.633606 112.998497,688.254456 
	C150.715530,727.797119 194.869888,758.275452 245.045959,779.928467 
	C288.180542,798.542908 333.313995,809.250305 380.161682,811.775818 
	C409.729553,813.369751 439.280823,812.163452 468.654755,807.252930 
	C504.947418,801.185791 539.851746,790.817688 573.174438,775.295776 
	C621.913086,752.593079 664.533386,721.487366 700.879639,681.773560 
	C723.032227,657.568481 742.180786,631.215637 757.728210,602.369324 
	C778.466309,563.892334 792.956116,523.243652 800.354858,479.971954 
	C804.096375,458.089844 806.159363,436.162323 806.698059,414.077759 
	C806.964233,403.167053 805.861450,392.196808 804.944153,381.290009 
	C803.792786,367.599030 802.976440,353.811157 800.649353,340.300385 
	C792.934204,295.506866 778.018188,253.152069 755.768005,213.455414 
	C723.923706,156.641830 680.952209,109.997444 626.711853,74.021065 
	C564.307922,32.629993 495.425385,10.516318 420.638214,7.154799 
	C390.646576,5.806741 360.765381,7.794673 331.234955,13.289693 
	C288.761078,21.193235 248.473160,35.373245 210.536499,56.206291 
	C176.576111,74.855759 145.889755,97.862534 118.611107,125.287865 
	C92.175652,151.865479 69.730049,181.510880 51.563881,214.415146 
	C24.342560,263.720917 7.843478,316.245453 2.855537,372.371246 
	C2.420731,377.263794 1.627010,382.124512 1.000001,387.000000 
z"/>
<path fill="#9DA2AD" opacity="1.000000" stroke="none" 
	d="
M1.000001,387.468658 
	C1.627010,382.124512 2.420731,377.263794 2.855537,372.371246 
	C7.843478,316.245453 24.342560,263.720917 51.563881,214.415146 
	C69.730049,181.510880 92.175652,151.865479 118.611107,125.287865 
	C145.889755,97.862534 176.576111,74.855759 210.536499,56.206291 
	C248.473160,35.373245 288.761078,21.193235 331.234955,13.289693 
	C360.765381,7.794673 390.646576,5.806741 420.638214,7.154799 
	C495.425385,10.516318 564.307922,32.629993 626.711853,74.021065 
	C680.952209,109.997444 723.923706,156.641830 755.768005,213.455414 
	C778.018188,253.152069 792.934204,295.506866 800.649353,340.300385 
	C802.976440,353.811157 803.792786,367.599030 804.944153,381.290009 
	C805.861450,392.196808 806.964233,403.167053 806.698059,414.077759 
	C806.159363,436.162323 804.096375,458.089844 800.354858,479.971954 
	C792.956116,523.243652 778.466309,563.892334 757.728210,602.369324 
	C742.180786,631.215637 723.032227,657.568481 700.879639,681.773560 
	C664.533386,721.487366 621.913086,752.593079 573.174438,775.295776 
	C539.851746,790.817688 504.947418,801.185791 468.654755,807.252930 
	C439.280823,812.163452 409.729553,813.369751 380.161682,811.775818 
	C333.313995,809.250305 288.180542,798.542908 245.045959,779.928467 
	C194.869888,758.275452 150.715530,727.797119 112.998497,688.254456 
	C65.668503,638.633606 32.790600,580.757935 14.856080,514.459167 
	C7.678185,487.924500 3.427172,460.945648 1.308732,433.275024 
	C1.000000,417.979095 1.000000,402.958221 1.000001,387.468658 
M676.487122,278.036652 
	C673.628845,272.626984 670.909119,267.138580 667.887512,261.821716 
	C656.587463,241.937744 643.630432,223.189957 627.892700,206.563156 
	C618.916748,197.080109 609.355957,188.121536 599.709656,179.308609 
	C583.411377,164.418274 565.097900,152.319824 545.663757,141.949371 
	C518.536499,127.473694 489.981232,116.758629 459.556519,111.930183 
	C442.319672,109.194679 424.881378,107.002556 407.466644,106.345200 
	C393.673828,105.824562 379.766632,107.869331 365.931946,109.032776 
	C346.446320,110.671432 327.594360,115.529495 309.112701,121.585251 
	C281.179016,130.738098 255.231628,144.002274 231.165909,160.942215 
	C208.694611,176.759872 188.669891,195.147491 171.080139,216.301056 
	C151.383072,239.988892 135.644073,265.935181 123.810379,294.390839 
	C110.166992,327.198151 102.952065,361.399200 101.165123,396.723297 
	C100.151459,416.761017 101.840179,436.745575 104.917397,456.617767 
	C109.650688,487.184723 118.907112,516.288818 132.565155,543.987244 
	C142.978729,565.105957 156.002869,584.508789 171.019806,602.683167 
	C185.677994,620.423462 202.020004,636.403931 220.182312,650.376526 
	C241.992554,667.155640 265.716827,680.809875 291.330750,691.130432 
	C323.626709,704.143372 357.227875,711.461182 391.889069,712.680908 
	C409.181183,713.289368 426.729797,712.102539 443.880432,709.708313 
	C461.410400,707.261047 478.840698,703.193726 495.868469,698.287292 
	C516.841919,692.243896 536.626526,683.062622 555.493652,671.888123 
	C575.340881,660.133118 593.897095,646.687988 610.517090,630.751526 
	C619.722839,621.924377 628.212891,612.318359 636.663147,602.743591 
	C649.380920,588.333618 660.005005,572.413086 669.135315,555.518005 
	C680.560913,534.375549 689.808350,512.360352 696.112305,489.098419 
	C701.131409,470.577820 704.399048,451.767090 705.813110,432.695312 
	C706.617004,421.853271 706.390076,410.886292 705.894653,400.008942 
	C705.308533,387.141876 704.726013,374.186615 702.738342,361.489288 
	C698.226685,332.668762 689.306152,305.098846 676.487122,278.036652 
z"/>
<path fill="#9DA2AD" opacity="1.000000" stroke="none" 
	d="
M967.466125,1081.000000 
	C961.173218,1079.919556 955.274475,1079.129150 949.532959,1077.705078 
	C931.501038,1073.232544 915.942566,1064.223511 902.826843,1051.118530 
	C822.080505,970.437256 741.374573,889.715454 660.662537,808.999878 
	C659.616516,807.953857 658.666016,806.812195 657.019104,804.996399 
	C714.426208,767.506775 761.818970,720.333374 799.126831,662.788208 
	C800.733521,664.313721 801.947266,665.414917 803.104797,666.572388 
	C883.346863,746.815369 963.580322,827.066956 1043.824829,907.307495 
	C1064.623657,928.105286 1075.477539,953.078552 1074.950684,982.599182 
	C1074.132324,1028.443115 1042.483765,1067.418457 998.303040,1077.949097 
	C993.161621,1079.174561 987.841553,1079.650513 982.302124,1080.737061 
	C977.310730,1081.000000 972.621521,1081.000000 967.466125,1081.000000 
z"/>
<path fill="#FFFFFF" opacity="1.000000" stroke="none" 
	d="
M676.678711,278.363098 
	C689.306152,305.098846 698.226685,332.668762 702.738342,361.489288 
	C704.726013,374.186615 705.308533,387.141876 705.894653,400.008942 
	C706.390076,410.886292 706.617004,421.853271 705.813110,432.695312 
	C704.399048,451.767090 701.131409,470.577820 696.112305,489.098419 
	C689.808350,512.360352 680.560913,534.375549 669.135315,555.518005 
	C660.005005,572.413086 649.380920,588.333618 636.663147,602.743591 
	C628.212891,612.318359 619.722839,621.924377 610.517090,630.751526 
	C593.897095,646.687988 575.340881,660.133118 555.493652,671.888123 
	C536.626526,683.062622 516.841919,692.243896 495.868469,698.287292 
	C478.840698,703.193726 461.410400,707.261047 443.880432,709.708313 
	C426.729797,712.102539 409.181183,713.289368 391.889069,712.680908 
	C357.227875,711.461182 323.626709,704.143372 291.330750,691.130432 
	C265.716827,680.809875 241.992554,667.155640 220.182312,650.376526 
	C202.020004,636.403931 185.677994,620.423462 171.019806,602.683167 
	C156.002869,584.508789 142.978729,565.105957 132.565155,543.987244 
	C118.907112,516.288818 109.650688,487.184723 104.917397,456.617767 
	C101.840179,436.745575 100.151459,416.761017 101.165123,396.723297 
	C102.952065,361.399200 110.166992,327.198151 123.810379,294.390839 
	C135.644073,265.935181 151.383072,239.988892 171.080139,216.301056 
	C188.669891,195.147491 208.694611,176.759872 231.165909,160.942215 
	C255.231628,144.002274 281.179016,130.738098 309.112701,121.585251 
	C327.594360,115.529495 346.446320,110.671432 365.931946,109.032776 
	C379.766632,107.869331 393.673828,105.824562 407.466644,106.345200 
	C424.881378,107.002556 442.319672,109.194679 459.556519,111.930183 
	C489.981232,116.758629 518.536499,127.473694 545.663757,141.949371 
	C565.097900,152.319824 583.411377,164.418274 599.709656,179.308609 
	C609.355957,188.121536 618.916748,197.080109 627.892700,206.563156 
	C643.630432,223.189957 656.587463,241.937744 667.887512,261.821716 
	C670.909119,267.138580 673.628845,272.626984 676.678711,278.363098 
M632.896362,532.075867 
	C632.896362,524.495422 632.896362,516.914978 632.896362,508.814148 
	C622.971130,508.814148 613.795288,508.814148 603.799316,508.814148 
	C613.555054,499.079895 622.625183,490.047546 631.675293,480.995178 
	C641.795715,470.872253 651.954834,460.786224 661.919189,450.511536 
	C662.904541,449.495514 663.513672,446.485809 662.832886,445.742218 
	C657.689819,440.124481 652.180420,434.842133 646.557983,429.227936 
	C625.838623,449.407959 605.349243,469.363953 584.859924,489.319977 
	C584.459595,489.099060 584.059265,488.878143 583.658936,488.657227 
	C583.658936,479.269531 583.658936,469.881866 583.658936,460.361694 
	C574.719849,460.361694 566.339661,460.361694 557.922485,460.361694 
	C557.922485,484.984894 557.922485,509.239868 557.922485,533.815552 
	C582.791199,533.815552 607.393921,533.815552 632.485413,533.834167 
	C632.854492,533.647217 632.943481,533.370300 632.896362,532.075867 
M194.481323,371.098389 
	C194.387344,371.408020 194.293365,371.717621 194.102615,372.956360 
	C194.134338,380.627655 194.166061,388.298950 194.099411,396.507507 
	C194.407227,396.625061 194.715042,396.742645 195.950195,396.982269 
	C220.193024,396.982269 244.435852,396.982269 268.704498,396.982269 
	C268.704498,371.721985 268.704498,347.014496 268.704498,322.327148 
	C260.016449,322.327148 251.628174,322.327148 242.617050,322.327148 
	C242.617050,331.766602 242.617050,340.891449 242.617050,350.016296 
	C242.091965,350.316498 241.566879,350.616730 241.041809,350.916962 
	C232.100433,341.539520 223.310318,332.011658 214.177094,322.824951 
	C204.102371,312.691223 193.766129,302.814056 183.376297,293.002472 
	C182.361191,292.043854 179.398911,291.485352 178.650314,292.171112 
	C173.030609,297.318817 167.739899,302.825714 162.238983,308.327545 
	C182.561264,329.179352 202.591843,349.731873 223.456558,371.140259 
	C213.206711,371.140259 204.115997,371.140259 194.481323,371.098389 
M322.700317,349.847748 
	C322.700317,349.847748 322.329468,349.880035 322.229126,348.963837 
	C322.229126,340.054169 322.229126,331.144531 322.229126,322.317383 
	C313.224731,322.317383 304.984741,322.317383 296.734192,322.317383 
	C296.734192,347.344971 296.734192,372.055176 296.734192,396.658234 
	C321.681427,396.658234 346.251038,396.658234 370.647583,396.658234 
	C370.647583,387.917725 370.647583,379.523834 370.647583,370.657532 
	C361.266327,370.657532 352.263000,370.657532 342.503265,370.657532 
	C363.077881,349.520569 383.026520,329.026672 403.267578,308.232330 
	C397.913757,302.948914 392.646973,297.864960 387.525116,292.638947 
	C385.573547,290.647705 384.060547,290.591003 382.105865,292.599243 
	C378.272278,296.537842 374.307526,300.349945 370.360596,304.176788 
	C354.590912,319.466705 338.807251,334.742126 322.700317,349.847748 
M195.939102,453.076599 
	C204.609390,453.131897 213.279694,453.187195 221.968674,453.685577 
	C221.968674,453.685577 222.069382,454.117462 221.822083,454.735504 
	C202.028809,475.082428 182.235535,495.429352 162.664352,515.547974 
	C169.039322,521.972107 174.874710,527.852539 180.866516,533.890564 
	C201.289383,513.994324 221.787109,494.025146 243.301620,473.065430 
	C243.301620,483.734283 243.301620,492.806305 243.301620,501.793945 
	C252.009995,501.793945 260.283081,501.793945 268.671448,501.793945 
	C268.671448,476.869995 268.671448,452.173492 268.671448,427.397644 
	C243.766312,427.397644 219.191376,427.397644 194.199188,427.397644 
	C194.199188,435.751343 194.199188,443.861206 194.099121,452.523163 
	C194.403549,452.660950 194.707977,452.798737 195.939102,453.076599 
M344.044281,454.394623 
	C344.047943,454.009705 344.051605,453.624756 344.979095,453.127197 
	C353.566986,453.127197 362.154877,453.127197 370.624146,453.127197 
	C370.624146,444.084442 370.624146,435.711243 370.624146,427.379395 
	C345.795990,427.379395 321.374878,427.379395 296.675537,427.379395 
	C296.675537,452.315643 296.675537,477.017975 296.675537,501.765503 
	C305.257629,501.765503 313.519348,501.765503 322.241211,501.765503 
	C322.241211,492.473602 322.241211,483.425720 322.241211,473.060822 
	C343.650940,493.948822 364.163483,513.961487 384.116638,533.428406 
	C390.320679,527.210632 396.353912,521.164001 402.717499,514.786316 
	C401.759552,513.949463 400.287567,512.833313 399.012939,511.524841 
	C380.664459,492.688843 362.342590,473.826965 344.044281,454.394623 
M589.929260,398.038757 
	C614.503540,398.038757 639.077820,398.038757 663.687683,398.038757 
	C663.687683,372.722290 663.687683,348.007782 663.687683,323.210693 
	C654.792358,323.210693 646.213623,323.210693 637.088501,323.210693 
	C637.088501,332.653473 637.088501,341.841248 637.088501,351.029053 
	C636.516113,351.413940 635.943726,351.798828 635.371338,352.183685 
	C615.437378,331.881836 595.503479,311.579987 576.002686,291.719269 
	C569.827454,297.699066 563.789246,303.546143 557.663086,309.478424 
	C577.879211,330.205994 597.867065,350.699585 618.851013,372.214478 
	C607.672791,372.214478 598.092834,372.214478 588.195679,372.214478 
	C588.195679,380.766113 588.195679,388.882812 588.136902,397.518219 
	C588.425049,397.644867 588.713196,397.771545 589.929260,398.038757 
M525.348389,519.749268 
	C524.674194,518.112793 524.410095,516.077332 523.264343,514.899597 
	C505.291718,496.425842 487.199615,478.068268 469.158783,459.660706 
	C468.007568,458.486115 467.051208,457.120575 465.292297,454.975769 
	C476.273132,454.975769 485.875763,454.975769 495.578125,454.975769 
	C495.578125,446.254913 495.578125,437.890533 495.578125,429.474243 
	C469.950836,429.474243 444.712158,429.474243 419.379181,429.474243 
	C419.379181,454.621857 419.379181,479.472321 419.379181,504.328979 
	C428.674774,504.328979 437.585907,504.328979 446.986633,504.328979 
	C446.986633,494.958588 446.986633,485.923828 446.986633,476.889069 
	C447.455872,476.589142 447.925079,476.289185 448.394318,475.989227 
	C453.697479,481.671814 458.865845,487.487793 464.330841,493.010193 
	C477.195557,506.010193 490.200348,518.871582 503.151733,531.785828 
	C506.452606,535.077271 509.838379,535.046021 513.142883,531.858459 
	C517.095642,528.045593 520.961853,524.142822 525.348389,519.749268 
M500.167999,352.505341 
	C500.167999,357.455933 500.167999,362.406525 500.167999,367.559814 
	C509.146912,367.559814 517.526001,367.559814 526.001648,367.559814 
	C526.001648,341.976807 526.001648,316.736420 526.001648,291.414215 
	C500.890198,291.414215 476.047943,291.414215 451.287781,291.414215 
	C451.287781,300.607605 451.287781,309.382629 451.287781,318.752991 
	C460.562500,318.752991 469.587189,318.752991 479.431549,318.752991 
	C458.596924,339.378113 438.482391,359.290375 419.039612,378.537628 
	C425.587158,385.604492 431.396088,391.874176 437.367126,398.318787 
	C458.287659,377.942871 478.805389,357.959320 500.193359,337.128174 
	C500.193359,342.895081 500.193359,347.204376 500.167999,352.505341 
z"/>
<path fill="#F99C1D" opacity="1.000000" stroke="none" 
	d="
M525.106934,520.014160 
	C520.961853,524.142822 517.095642,528.045593 513.142883,531.858459 
	C509.838379,535.046021 506.452606,535.077271 503.151733,531.785828 
	C490.200348,518.871582 477.195557,506.010193 464.330841,493.010193 
	C458.865845,487.487793 453.697479,481.671814 448.394318,475.989227 
	C447.925079,476.289185 447.455872,476.589142 446.986633,476.889069 
	C446.986633,485.923828 446.986633,494.958588 446.986633,504.328979 
	C437.585907,504.328979 428.674774,504.328979 419.379181,504.328979 
	C419.379181,479.472321 419.379181,454.621857 419.379181,429.474243 
	C444.712158,429.474243 469.950836,429.474243 495.578125,429.474243 
	C495.578125,437.890533 495.578125,446.254913 495.578125,454.975769 
	C485.875763,454.975769 476.273132,454.975769 465.292297,454.975769 
	C467.051208,457.120575 468.007568,458.486115 469.158783,459.660706 
	C487.199615,478.068268 505.291718,496.425842 523.264343,514.899597 
	C524.410095,516.077332 524.674194,518.112793 525.106934,520.014160 
z"/>
<path fill="#F99D1D" opacity="1.000000" stroke="none" 
	d="
M500.180664,352.009521 
	C500.193359,347.204376 500.193359,342.895081 500.193359,337.128174 
	C478.805389,357.959320 458.287659,377.942871 437.367126,398.318787 
	C431.396088,391.874176 425.587158,385.604492 419.039612,378.537628 
	C438.482391,359.290375 458.596924,339.378113 479.431549,318.752991 
	C469.587189,318.752991 460.562500,318.752991 451.287781,318.752991 
	C451.287781,309.382629 451.287781,300.607605 451.287781,291.414215 
	C476.047943,291.414215 500.890198,291.414215 526.001648,291.414215 
	C526.001648,316.736420 526.001648,341.976807 526.001648,367.559814 
	C517.526001,367.559814 509.146912,367.559814 500.167999,367.559814 
	C500.167999,362.406525 500.167999,357.455933 500.180664,352.009521 
z"/>
<path fill="#F99D1D" opacity="1.000000" stroke="none" 
	d="
M588.195679,396.999512 
	C588.195679,388.882812 588.195679,380.766113 588.195679,372.214478 
	C598.092834,372.214478 607.672791,372.214478 618.851013,372.214478 
	C597.867065,350.699585 577.879211,330.205994 557.663086,309.478424 
	C563.789246,303.546143 569.827454,297.699066 576.002686,291.719269 
	C595.503479,311.579987 615.437378,331.881836 635.371338,352.183685 
	C635.943726,351.798828 636.516113,351.413940 637.088501,351.029053 
	C637.088501,341.841248 637.088501,332.653473 637.088501,323.210693 
	C646.213623,323.210693 654.792358,323.210693 663.687683,323.210693 
	C663.687683,348.007782 663.687683,372.722290 663.687683,398.038757 
	C639.077820,398.038757 614.503540,398.038757 589.375977,397.781860 
	C588.666687,397.286530 588.457703,397.111389 588.195679,396.999512 
z"/>
<path fill="#1DB24C" opacity="1.000000" stroke="none" 
	d="
M344.014343,454.971313 
	C362.342590,473.826965 380.664459,492.688843 399.012939,511.524841 
	C400.287567,512.833313 401.759552,513.949463 402.717499,514.786316 
	C396.353912,521.164001 390.320679,527.210632 384.116638,533.428406 
	C364.163483,513.961487 343.650940,493.948822 322.241211,473.060822 
	C322.241211,483.425720 322.241211,492.473602 322.241211,501.765503 
	C313.519348,501.765503 305.257629,501.765503 296.675537,501.765503 
	C296.675537,477.017975 296.675537,452.315643 296.675537,427.379395 
	C321.374878,427.379395 345.795990,427.379395 370.624146,427.379395 
	C370.624146,435.711243 370.624146,444.084442 370.624146,453.127197 
	C362.154877,453.127197 353.566986,453.127197 344.196594,453.144409 
	C343.614166,453.764862 343.814270,454.368073 344.014343,454.971313 
z"/>
<path fill="#1DB24C" opacity="1.000000" stroke="none" 
	d="
M221.949982,453.242493 
	C213.279694,453.187195 204.609390,453.131897 195.386536,452.809540 
	C194.682449,452.285278 194.470856,452.094818 194.199188,451.971100 
	C194.199188,443.861206 194.199188,435.751343 194.199188,427.397644 
	C219.191376,427.397644 243.766312,427.397644 268.671448,427.397644 
	C268.671448,452.173492 268.671448,476.869995 268.671448,501.793945 
	C260.283081,501.793945 252.009995,501.793945 243.301620,501.793945 
	C243.301620,492.806305 243.301620,483.734283 243.301620,473.065430 
	C221.787109,494.025146 201.289383,513.994324 180.866516,533.890564 
	C174.874710,527.852539 169.039322,521.972107 162.664352,515.547974 
	C182.235535,495.429352 202.028809,475.082428 222.187286,454.330200 
	C222.351654,453.697388 222.150818,453.469940 221.949982,453.242493 
z"/>
<path fill="#1DB24B" opacity="1.000000" stroke="none" 
	d="
M323.028748,350.022888 
	C338.807251,334.742126 354.590912,319.466705 370.360596,304.176788 
	C374.307526,300.349945 378.272278,296.537842 382.105865,292.599243 
	C384.060547,290.591003 385.573547,290.647705 387.525116,292.638947 
	C392.646973,297.864960 397.913757,302.948914 403.267578,308.232330 
	C383.026520,329.026672 363.077881,349.520569 342.503265,370.657532 
	C352.263000,370.657532 361.266327,370.657532 370.647583,370.657532 
	C370.647583,379.523834 370.647583,387.917725 370.647583,396.658234 
	C346.251038,396.658234 321.681427,396.658234 296.734192,396.658234 
	C296.734192,372.055176 296.734192,347.344971 296.734192,322.317383 
	C304.984741,322.317383 313.224731,322.317383 322.229126,322.317383 
	C322.229126,331.144531 322.229126,340.054169 322.205780,349.646149 
	C322.464539,350.226624 322.746643,350.124756 323.028748,350.022888 
z"/>
<path fill="#1DB24B" opacity="1.000000" stroke="none" 
	d="
M194.197784,395.970245 
	C194.166061,388.298950 194.134338,380.627655 194.328094,372.385223 
	C194.757095,371.621857 194.914337,371.397247 195.025284,371.140259 
	C204.115997,371.140259 213.206711,371.140259 223.456558,371.140259 
	C202.591843,349.731873 182.561264,329.179352 162.238983,308.327545 
	C167.739899,302.825714 173.030609,297.318817 178.650314,292.171112 
	C179.398911,291.485352 182.361191,292.043854 183.376297,293.002472 
	C193.766129,302.814056 204.102371,312.691223 214.177094,322.824951 
	C223.310318,332.011658 232.100433,341.539520 241.041809,350.916962 
	C241.566879,350.616730 242.091965,350.316498 242.617050,350.016296 
	C242.617050,340.891449 242.617050,331.766602 242.617050,322.327148 
	C251.628174,322.327148 260.016449,322.327148 268.704498,322.327148 
	C268.704498,347.014496 268.704498,371.721985 268.704498,396.982269 
	C244.435852,396.982269 220.193024,396.982269 195.385986,396.740295 
	C194.669098,396.256958 194.461090,396.080902 194.197784,395.970245 
z"/>
<path fill="#F99C1D" opacity="1.000000" stroke="none" 
	d="
M631.996643,533.815552 
	C607.393921,533.815552 582.791199,533.815552 557.922485,533.815552 
	C557.922485,509.239868 557.922485,484.984894 557.922485,460.361694 
	C566.339661,460.361694 574.719849,460.361694 583.658936,460.361694 
	C583.658936,469.881866 583.658936,479.269531 583.658936,488.657227 
	C584.059265,488.878143 584.459595,489.099060 584.859924,489.319977 
	C605.349243,469.363953 625.838623,449.407959 646.557983,429.227936 
	C652.180420,434.842133 657.689819,440.124481 662.832886,445.742218 
	C663.513672,446.485809 662.904541,449.495514 661.919189,450.511536 
	C651.954834,460.786224 641.795715,470.872253 631.675293,480.995178 
	C622.625183,490.047546 613.555054,499.079895 603.799316,508.814148 
	C613.795288,508.814148 622.971130,508.814148 632.896362,508.814148 
	C632.896362,516.914978 632.896362,524.495422 632.658203,532.632812 
	C632.221191,533.359314 632.080078,533.567932 631.996643,533.815552 
z"/>
<path fill="#D7F1DF" opacity="1.000000" stroke="none" 
	d="
M344.029297,454.682983 
	C343.814270,454.368073 343.614166,453.764862 343.734680,453.200745 
	C344.051605,453.624756 344.047943,454.009705 344.029297,454.682983 
z"/>
<path fill="#BAE8C8" opacity="1.000000" stroke="none" 
	d="
M322.864532,349.935303 
	C322.746643,350.124756 322.464539,350.226624 322.255951,350.104248 
	C322.329468,349.880035 322.700317,349.847748 322.864532,349.935303 
z"/>
<path fill="#4DC272" opacity="1.000000" stroke="none" 
	d="
M194.753296,371.119324 
	C194.914337,371.397247 194.757095,371.621857 194.376480,371.920654 
	C194.293365,371.717621 194.387344,371.408020 194.753296,371.119324 
z"/>
<path fill="#4DC272" opacity="1.000000" stroke="none" 
	d="
M194.148590,396.238892 
	C194.461090,396.080902 194.669098,396.256958 194.922333,396.679260 
	C194.715042,396.742645 194.407227,396.625061 194.148590,396.238892 
z"/>
<path fill="#FAA838" opacity="1.000000" stroke="none" 
	d="
M588.166260,397.258850 
	C588.457703,397.111389 588.666687,397.286530 588.912048,397.711578 
	C588.713196,397.771545 588.425049,397.644867 588.166260,397.258850 
z"/>
<path fill="#4DC272" opacity="1.000000" stroke="none" 
	d="
M194.149155,452.247131 
	C194.470856,452.094818 194.682449,452.285278 194.923187,452.739502 
	C194.707977,452.798737 194.403549,452.660950 194.149155,452.247131 
z"/>
<path fill="#D7F1DF" opacity="1.000000" stroke="none" 
	d="
M221.959320,453.464050 
	C222.150818,453.469940 222.351654,453.697388 222.310944,454.021179 
	C222.069382,454.117462 221.968674,453.685577 221.959320,453.464050 
z"/>
<path fill="#FAA838" opacity="1.000000" stroke="none" 
	d="
M632.241028,533.824829 
	C632.080078,533.567932 632.221191,533.359314 632.586243,533.096558 
	C632.943481,533.370300 632.854492,533.647217 632.241028,533.824829 
z"/>
</svg>